<svg id="svg" version="1.1" width="490" height="490" viewBox="0 0 490 490" xmlns="http://www.w3.org/2000/svg"><path d="M0.000 245.000 L 0.000 490.000 62.750 489.999 L 125.500 489.998 125.587 482.040 L 125.674 474.083 121.087 474.624 C 117.677 475.026,116.885 474.891,118.000 474.098 C 118.825 473.511,120.545 473.024,121.821 473.015 C 127.625 472.977,127.832 470.956,125.482 437.265 C 123.779 412.864,122.931 405.908,119.899 391.500 C 118.073 382.820,117.099 379.554,115.172 375.643 C 114.940 375.171,115.750 375.103,116.973 375.492 C 118.816 376.076,119.104 375.881,118.651 374.349 C 118.351 373.332,117.369 369.575,116.469 366.000 C 114.836 359.516,109.489 345.525,107.814 343.356 C 106.550 341.718,115.352 338.752,116.896 340.296 C 117.701 341.101,118.000 340.685,118.000 338.759 C 118.000 334.956,116.384 334.499,113.003 337.344 C 111.378 338.711,108.575 340.132,106.774 340.499 C 104.973 340.867,100.350 342.095,96.500 343.227 C 92.650 344.359,88.938 345.296,88.250 345.309 C 87.563 345.323,87.000 345.708,87.000 346.167 C 87.000 347.658,82.729 347.047,78.353 344.929 C 73.139 342.405,70.827 338.794,68.155 329.000 C 64.621 316.047,63.157 303.822,61.297 271.729 C 60.759 262.443,63.470 252.234,68.442 244.826 L 71.579 240.152 75.058 242.140 C 76.972 243.234,79.302 245.462,80.238 247.091 C 81.689 249.620,82.345 249.954,84.719 249.373 C 86.249 248.998,87.806 248.223,88.181 247.649 C 88.594 247.015,89.659 247.566,90.897 249.053 C 92.582 251.078,92.939 251.198,92.967 249.750 C 93.012 247.392,94.565 247.541,96.339 250.073 C 97.265 251.395,98.035 251.752,98.465 251.057 C 98.835 250.458,99.564 250.231,100.085 250.553 C 100.606 250.875,100.811 251.497,100.540 251.935 C 100.269 252.374,100.937 253.538,102.024 254.521 C 103.111 255.505,104.000 256.815,104.000 257.432 C 104.000 258.050,104.755 259.632,105.677 260.949 C 107.267 263.219,107.393 263.243,108.106 261.421 C 108.635 260.072,108.880 259.955,108.930 261.028 C 108.968 261.868,109.874 263.304,110.942 264.218 C 112.010 265.133,113.441 267.820,114.122 270.191 C 114.803 272.561,115.466 274.649,115.595 274.831 C 116.168 275.642,119.993 272.797,119.469 271.950 C 119.146 271.427,119.373 271.000,119.972 271.000 C 120.572 271.000,121.322 271.675,121.638 272.500 C 121.955 273.325,122.589 274.000,123.048 274.000 C 124.357 274.000,125.624 265.921,125.009 261.500 C 124.633 258.800,124.882 257.168,125.775 256.477 C 127.457 255.177,128.369 244.346,126.874 243.422 C 126.131 242.963,126.216 242.478,127.143 241.890 C 128.062 241.308,128.113 241.026,127.302 241.015 C 126.469 241.005,126.083 238.333,126.036 232.250 C 125.998 227.438,125.815 221.475,125.628 219.000 C 125.264 214.181,126.604 208.488,128.707 205.921 C 129.418 205.053,130.010 203.028,130.022 201.421 C 130.034 199.815,130.924 197.375,132.000 196.000 C 133.076 194.625,133.966 192.975,133.978 192.333 C 133.990 191.692,134.544 190.985,135.209 190.764 C 135.874 190.542,136.513 189.042,136.628 187.430 C 136.743 185.819,136.874 184.012,136.919 183.417 C 137.023 182.033,140.000 181.985,140.000 183.367 C 140.000 183.935,140.563 183.804,141.250 183.075 C 142.124 182.149,142.167 181.627,141.395 181.340 C 140.788 181.115,140.478 179.708,140.706 178.215 C 141.110 175.573,141.025 175.606,137.561 179.417 C 133.900 183.443,131.835 183.845,134.181 180.074 C 135.302 178.272,135.240 177.499,133.764 174.920 C 132.255 172.283,132.209 171.601,133.415 169.693 C 134.339 168.231,134.711 165.166,134.529 160.500 C 134.280 154.133,134.055 153.470,132.034 153.168 C 130.281 152.906,129.929 153.222,130.363 154.668 C 130.665 155.676,130.273 157.625,129.492 159.000 C 127.082 163.241,127.181 156.549,129.606 151.250 C 131.360 147.419,132.317 147.187,133.739 150.250 C 134.773 152.479,134.794 152.472,135.965 149.500 C 136.879 147.183,136.874 145.667,135.943 142.839 C 134.575 138.680,135.255 134.855,138.066 130.907 C 140.223 127.878,140.549 126.000,138.918 126.000 C 135.720 126.000,149.761 110.007,161.978 99.735 C 167.538 95.060,181.764 88.159,195.258 83.593 C 202.782 81.047,208.684 79.824,217.500 78.986 C 224.100 78.358,233.775 77.264,239.000 76.555 C 244.225 75.845,250.750 75.480,253.500 75.743 C 256.250 76.006,263.900 76.330,270.500 76.462 L 282.500 76.703 296.006 82.715 C 318.049 92.527,332.675 103.384,343.928 118.288 C 348.052 123.750,350.000 125.241,350.000 122.934 C 350.000 121.141,347.877 117.685,344.356 113.747 C 342.510 111.683,341.000 109.546,341.000 108.997 C 341.000 107.192,344.656 107.956,348.500 110.565 C 350.879 112.179,353.714 113.149,356.150 113.183 C 359.504 113.229,360.096 113.588,360.580 115.868 C 360.887 117.316,361.604 119.625,362.172 121.000 C 362.740 122.375,363.406 124.625,363.651 126.000 C 364.597 131.303,368.203 148.769,369.500 154.329 C 370.674 159.363,370.665 160.085,369.430 159.612 C 367.759 158.970,367.362 163.487,369.000 164.500 C 369.554 164.842,370.000 164.110,370.000 162.859 C 370.000 161.530,370.354 160.991,370.858 161.550 C 371.786 162.577,373.418 170.357,375.045 181.500 C 375.607 185.350,376.543 189.984,377.126 191.798 C 378.787 196.964,379.105 199.698,379.475 212.000 C 379.797 222.668,382.960 249.251,385.009 258.500 C 387.254 268.636,389.999 290.063,389.992 297.396 C 389.980 309.179,388.376 321.688,384.931 336.864 C 381.506 351.949,379.843 356.691,371.028 376.500 C 367.602 384.200,362.369 395.966,359.399 402.647 C 355.816 410.709,354.000 416.127,354.000 418.760 C 354.000 424.238,355.661 432.483,357.578 436.524 C 358.459 438.380,358.929 440.306,358.621 440.803 C 358.314 441.301,358.759 446.380,359.609 452.091 C 361.636 465.695,361.625 485.562,359.589 488.856 C 359.061 489.710,375.478 490.000,424.441 490.000 L 490.000 490.000 490.000 245.000 L 490.000 0.000 245.000 0.000 L 0.000 0.000 0.000 245.000 M224.086 3.955 L 231.444 5.684 228.599 8.320 L 225.755 10.956 228.443 11.978 C 229.921 12.540,232.880 13.000,235.019 13.000 C 238.251 13.000,239.633 13.717,243.211 17.250 C 245.579 19.587,249.951 23.564,252.927 26.087 C 255.903 28.609,257.880 30.956,257.320 31.302 C 256.761 31.648,255.446 31.159,254.398 30.215 C 246.817 23.391,230.870 13.796,229.457 15.210 C 229.228 15.438,232.407 18.261,236.521 21.483 C 240.634 24.705,244.000 27.649,244.000 28.025 C 244.000 29.156,248.826 34.000,249.952 34.000 C 250.529 34.000,251.000 34.623,251.000 35.385 C 251.000 36.147,252.125 37.507,253.500 38.408 C 254.875 39.309,255.997 40.823,255.994 41.773 C 255.990 42.870,253.018 40.449,247.853 35.144 C 239.251 26.309,228.793 18.000,226.274 18.000 C 225.446 18.000,222.683 16.483,220.134 14.629 C 213.842 10.053,210.293 8.368,205.136 7.511 C 200.115 6.676,196.311 4.065,198.271 2.797 C 200.386 1.429,216.392 2.147,224.086 3.955 M191.000 5.000 C 191.000 6.175,191.667 7.000,192.616 7.000 C 195.571 7.000,203.953 10.434,204.504 11.871 C 205.228 13.758,204.352 14.508,202.774 13.351 C 199.209 10.738,187.552 8.298,186.530 9.951 C 186.146 10.573,184.987 10.813,183.954 10.485 C 182.921 10.157,181.046 10.389,179.788 11.000 C 177.679 12.023,177.643 11.995,179.320 10.644 C 181.041 9.257,181.045 9.125,179.396 8.202 C 177.888 7.358,178.183 6.946,181.576 5.157 C 186.823 2.391,191.000 2.321,191.000 5.000 M173.500 11.000 C 173.160 11.550,172.346 11.993,171.691 11.985 C 170.975 11.975,171.099 11.582,172.000 11.000 C 173.921 9.758,174.267 9.758,173.500 11.000 M165.674 20.248 C 163.765 22.037,160.847 24.290,159.189 25.255 C 156.628 26.746,156.209 26.782,156.398 25.494 C 156.520 24.660,157.668 23.195,158.948 22.239 C 160.227 21.283,162.898 18.943,164.881 17.039 C 167.817 14.222,168.549 13.897,168.817 15.288 C 169.002 16.248,167.625 18.421,165.674 20.248 M272.000 15.000 C 272.000 15.550,272.347 15.887,272.772 15.750 C 273.904 15.383,287.000 23.765,287.000 24.857 C 287.000 25.368,287.624 26.025,288.387 26.318 C 289.359 26.691,289.623 26.276,289.271 24.927 C 288.827 23.231,289.154 23.081,292.039 23.658 C 294.563 24.163,295.129 24.018,294.516 23.026 C 294.048 22.269,294.144 21.897,294.750 22.120 C 296.282 22.686,302.864 30.847,305.082 34.931 C 307.476 39.339,308.990 41.779,311.250 44.873 L 313.000 47.270 313.000 44.670 C 313.000 42.234,315.348 40.000,317.909 40.000 C 318.481 40.000,319.649 41.237,320.505 42.750 C 324.762 50.274,325.876 51.576,328.907 52.578 C 330.701 53.171,332.538 54.253,332.989 54.983 C 333.441 55.713,335.041 56.441,336.545 56.602 C 340.830 57.059,342.000 57.781,342.000 59.969 C 342.000 61.086,342.450 62.000,343.000 62.000 C 343.550 62.000,344.000 62.914,344.000 64.031 C 344.000 65.149,344.644 66.310,345.432 66.612 C 347.144 67.269,347.092 71.000,345.371 71.000 C 344.708 71.000,343.940 70.437,343.662 69.750 C 343.385 69.063,343.122 69.539,343.079 70.809 C 343.024 72.402,343.388 72.885,344.250 72.367 C 345.069 71.875,345.017 72.211,344.100 73.341 C 342.786 74.960,342.555 74.931,340.350 72.859 L 338.000 70.651 338.000 74.159 C 338.000 78.285,337.196 79.407,335.342 77.869 C 334.313 77.015,334.000 77.134,334.000 78.378 C 334.000 80.417,332.131 80.504,331.362 78.500 C 331.045 77.675,330.285 77.000,329.673 77.000 C 328.172 77.000,323.005 70.859,323.002 69.071 C 322.997 65.739,320.529 61.000,318.799 61.000 C 317.640 61.000,317.000 60.255,317.000 58.906 C 317.000 57.670,316.200 56.604,315.047 56.302 C 312.434 55.619,309.578 51.341,311.276 50.654 C 311.949 50.381,311.445 50.122,310.156 50.079 C 308.695 50.030,307.616 49.247,307.290 48.000 C 307.002 46.900,306.463 46.000,306.091 46.000 C 305.720 46.000,303.188 43.983,300.465 41.518 C 296.558 37.982,295.397 37.369,294.960 38.615 C 294.475 39.997,294.254 40.011,293.186 38.724 C 292.515 37.915,292.229 36.567,292.551 35.728 C 292.873 34.889,292.661 33.908,292.080 33.549 C 291.437 33.152,291.256 33.504,291.618 34.448 C 292.647 37.129,291.379 36.209,283.610 28.639 C 279.455 24.590,275.911 21.422,275.735 21.599 C 275.558 21.775,274.267 20.925,272.864 19.710 C 270.448 17.615,269.373 14.000,271.167 14.000 C 271.625 14.000,272.000 14.450,272.000 15.000 M270.300 28.660 C 270.740 29.397,271.766 30.000,272.581 30.000 C 273.396 30.000,274.356 30.788,274.714 31.750 C 275.072 32.712,277.034 35.525,279.074 38.000 C 281.114 40.475,283.785 44.525,285.008 47.000 C 286.232 49.475,287.928 52.290,288.777 53.256 C 290.592 55.320,289.687 56.815,287.647 55.122 C 286.877 54.483,284.202 50.441,281.704 46.141 C 277.474 38.862,267.783 27.807,262.000 23.664 C 260.625 22.679,261.750 23.099,264.500 24.597 C 267.250 26.095,269.860 27.923,270.300 28.660 M292.000 27.014 C 292.000 29.897,296.467 35.296,299.197 35.712 C 301.360 36.042,300.912 35.176,295.815 29.166 C 293.019 25.870,292.000 25.295,292.000 27.014 M152.000 30.474 C 152.000 30.735,150.537 31.717,148.750 32.657 L 145.500 34.364 148.000 35.006 L 150.500 35.647 148.259 36.388 C 147.026 36.796,145.595 36.868,145.078 36.548 C 144.561 36.229,143.856 36.425,143.510 36.984 C 143.165 37.543,143.385 38.000,144.000 38.000 C 144.615 38.000,144.849 38.436,144.520 38.968 C 144.191 39.501,142.435 39.880,140.618 39.812 C 136.438 39.655,135.058 40.507,135.674 42.863 C 136.185 44.817,133.821 45.959,129.207 45.986 L 126.915 46.000 129.707 42.426 C 131.243 40.461,134.697 37.723,137.381 36.343 C 140.066 34.963,143.188 32.971,144.320 31.917 C 146.105 30.254,152.000 29.147,152.000 30.474 M300.564 38.293 C 300.940 39.279,301.499 39.834,301.807 39.526 C 302.115 39.219,301.808 38.412,301.124 37.733 C 300.136 36.753,300.022 36.868,300.564 38.293 M302.564 40.707 C 302.022 42.132,302.136 42.247,303.124 41.267 C 303.808 40.588,304.115 39.781,303.807 39.474 C 303.499 39.166,302.940 39.721,302.564 40.707 M305.667 40.667 C 305.300 41.033,305.000 41.798,305.000 42.367 C 305.000 42.993,305.466 42.934,306.183 42.217 C 306.834 41.566,307.134 40.801,306.850 40.517 C 306.566 40.233,306.033 40.300,305.667 40.667 M297.000 42.000 C 297.000 42.550,296.802 43.000,296.559 43.000 C 296.316 43.000,295.840 42.550,295.500 42.000 C 295.160 41.450,295.359 41.000,295.941 41.000 C 296.523 41.000,297.000 41.450,297.000 42.000 M239.500 44.000 C 239.840 44.550,239.668 45.000,239.118 45.000 C 238.568 45.000,237.840 44.550,237.500 44.000 C 237.160 43.450,237.332 43.000,237.882 43.000 C 238.432 43.000,239.160 43.450,239.500 44.000 M289.608 44.750 C 291.185 46.827,291.407 48.370,290.005 47.503 C 288.704 46.699,286.732 43.000,287.605 43.000 C 287.976 43.000,288.877 43.788,289.608 44.750 M301.128 47.750 C 302.371 49.336,302.336 49.371,300.750 48.128 C 299.084 46.821,298.555 46.000,299.378 46.000 C 299.585 46.000,300.373 46.788,301.128 47.750 M243.000 48.000 C 243.000 48.550,242.802 49.000,242.559 49.000 C 242.316 49.000,241.840 48.550,241.500 48.000 C 241.160 47.450,241.359 47.000,241.941 47.000 C 242.523 47.000,243.000 47.450,243.000 48.000 M248.963 54.250 L 251.303 57.500 248.151 54.563 C 244.811 51.450,244.516 51.000,245.812 51.000 C 246.259 51.000,247.677 52.462,248.963 54.250 M295.771 54.562 C 295.436 54.897,294.623 54.120,293.964 52.836 C 292.819 50.603,292.846 50.576,294.574 52.226 C 295.568 53.176,296.107 54.227,295.771 54.562 M123.000 54.441 C 123.000 55.496,121.081 55.940,120.510 55.016 C 120.165 54.457,120.584 54.000,121.441 54.000 C 122.298 54.000,123.000 54.198,123.000 54.441 M298.457 55.931 C 298.774 56.443,298.575 57.144,298.016 57.490 C 297.457 57.835,297.000 57.416,297.000 56.559 C 297.000 54.802,297.600 54.544,298.457 55.931 M115.782 59.923 C 116.820 60.205,112.868 65.385,109.990 67.515 C 106.921 69.785,106.457 69.889,106.144 68.378 C 105.938 67.382,107.150 65.471,109.029 63.830 C 110.812 62.274,111.958 61.000,111.576 61.000 C 111.195 61.000,111.135 60.590,111.445 60.089 C 111.902 59.350,113.450 59.291,115.782 59.923 M302.514 63.819 C 301.666 64.668,299.010 61.793,299.664 60.735 C 300.057 60.099,300.823 60.405,301.642 61.526 C 302.378 62.531,302.770 63.563,302.514 63.819 M100.078 79.354 L 97.919 81.500 99.639 78.038 C 100.627 76.047,101.545 75.135,101.797 75.892 C 102.039 76.616,101.265 78.174,100.078 79.354 M351.000 79.031 C 351.000 80.320,348.151 81.484,347.236 80.569 C 346.863 80.196,347.220 79.473,348.029 78.961 C 349.965 77.737,351.000 77.761,351.000 79.031 M342.604 82.729 C 341.588 83.746,340.749 82.215,341.583 80.866 C 342.213 79.846,342.449 79.846,342.787 80.862 C 343.019 81.557,342.936 82.397,342.604 82.729 M352.655 82.457 C 352.329 83.306,351.583 84.000,350.996 84.000 C 350.257 84.000,350.272 83.361,351.046 81.914 C 352.287 79.595,353.585 80.033,352.655 82.457 M89.434 95.107 C 89.810 94.498,90.991 94.000,92.059 94.000 C 94.620 94.000,94.655 97.897,92.124 101.115 C 91.092 102.427,90.231 103.844,90.210 104.264 C 90.034 107.745,88.585 114.093,87.342 116.831 C 86.510 118.663,86.154 120.463,86.551 120.831 C 86.949 121.199,87.475 120.938,87.720 120.250 C 88.315 118.583,90.930 118.653,91.582 120.352 C 91.867 121.096,90.953 123.863,89.550 126.501 C 88.148 129.139,86.996 131.793,86.992 132.399 C 86.985 133.361,84.709 134.802,80.175 136.713 C 79.295 137.084,78.959 136.637,79.175 135.386 C 79.354 134.349,79.725 133.275,80.000 133.000 C 80.275 132.725,81.007 131.150,81.627 129.500 C 82.247 127.850,83.082 125.713,83.484 124.750 C 84.730 121.763,80.969 122.675,77.910 126.101 C 74.431 129.997,72.939 138.273,75.292 140.625 C 76.282 141.615,74.997 149.127,73.398 151.690 C 72.594 152.979,71.900 157.529,71.711 162.746 C 71.437 170.287,71.062 171.938,69.195 173.805 C 66.432 176.568,66.402 178.000,69.107 178.000 C 70.705 178.000,71.050 178.423,70.537 179.750 C 70.165 180.713,69.610 182.738,69.305 184.250 C 68.574 187.872,67.661 187.723,66.236 183.750 C 65.057 180.462,65.286 167.965,66.563 165.899 C 66.944 165.281,66.839 164.489,66.329 164.138 C 65.291 163.424,65.442 151.134,66.546 146.500 C 66.939 144.850,67.230 142.713,67.192 141.750 C 67.155 140.787,67.820 140.000,68.671 140.000 C 69.834 140.000,70.056 139.360,69.568 137.416 C 69.148 135.741,69.285 135.058,69.960 135.475 C 70.555 135.843,71.000 135.212,71.000 134.000 C 71.000 132.835,70.625 132.114,70.167 132.397 C 69.708 132.680,69.333 132.277,69.333 131.500 C 69.333 130.723,69.657 130.288,70.053 130.533 C 70.449 130.777,71.001 130.104,71.280 129.037 C 71.559 127.969,71.273 126.885,70.644 126.627 C 69.987 126.357,70.138 126.123,71.000 126.077 C 71.936 126.026,72.580 124.852,72.713 122.952 C 72.831 121.278,73.837 118.751,74.950 117.337 C 76.062 115.922,76.727 114.368,76.427 113.882 C 76.127 113.397,76.385 113.000,77.000 113.000 C 77.615 113.000,77.896 112.641,77.625 112.202 C 77.354 111.763,77.595 110.751,78.160 109.952 C 78.985 108.788,79.071 108.864,78.594 110.334 C 77.507 113.681,80.177 111.549,82.492 107.219 C 83.728 104.910,85.340 102.295,86.075 101.409 C 87.994 99.097,88.112 97.020,86.285 97.721 C 84.995 98.216,84.951 97.961,85.991 96.017 C 86.867 94.381,87.434 94.083,87.982 94.972 C 88.528 95.854,88.948 95.893,89.434 95.107 M99.112 114.287 C 98.296 115.104,98.000 114.992,98.000 113.867 C 98.000 111.879,99.345 110.534,99.842 112.025 C 100.052 112.657,99.724 113.676,99.112 114.287 M352.020 128.524 C 352.716 129.362,353.491 129.842,353.743 129.591 C 354.436 128.897,353.027 127.000,351.819 127.000 C 351.155 127.000,351.231 127.574,352.020 128.524 M135.000 145.000 C 135.000 145.550,134.213 145.993,133.250 145.985 C 131.754 145.972,131.718 145.828,133.000 145.000 C 134.887 143.780,135.000 143.780,135.000 145.000 M127.500 163.000 C 127.160 163.550,126.121 163.993,125.191 163.985 C 123.734 163.971,123.707 163.835,125.000 163.000 C 126.958 161.734,128.282 161.734,127.500 163.000 M145.079 174.583 C 145.127 175.748,145.364 175.985,145.683 175.188 C 145.972 174.466,145.936 173.603,145.604 173.271 C 145.272 172.939,145.036 173.529,145.079 174.583 M228.500 174.858 C 227.478 175.055,226.081 175.776,225.396 176.461 C 224.711 177.146,221.680 177.997,218.660 178.352 C 212.121 179.121,209.819 179.898,210.554 181.088 C 210.853 181.571,208.825 182.958,206.049 184.170 C 200.793 186.465,199.571 188.000,203.000 188.000 C 204.100 188.000,205.000 188.653,205.000 189.450 C 205.000 190.248,205.787 191.359,206.750 191.920 C 208.139 192.729,208.190 192.955,207.000 193.014 C 206.175 193.055,207.185 193.978,209.245 195.066 C 211.664 196.342,215.916 197.251,221.245 197.631 C 230.117 198.263,233.000 199.220,233.000 201.535 C 233.000 202.490,231.975 203.000,230.059 203.000 C 226.142 203.000,225.190 204.787,228.709 205.533 C 230.244 205.859,232.622 206.358,233.994 206.643 C 239.745 207.837,240.627 210.961,235.250 211.090 L 231.500 211.180 234.750 212.119 C 236.537 212.635,238.000 213.542,238.000 214.136 C 238.000 214.729,237.354 214.966,236.565 214.663 C 235.775 214.360,234.988 214.523,234.815 215.025 C 234.642 215.526,232.475 216.150,230.000 216.410 C 220.166 217.444,206.530 221.141,196.500 225.492 C 192.608 227.180,192.543 227.176,194.098 225.363 C 197.357 221.563,197.288 220.579,193.945 223.179 C 192.050 224.653,190.624 226.374,190.775 227.004 C 190.926 227.633,190.585 227.862,190.018 227.511 C 189.450 227.160,188.716 227.577,188.386 228.437 C 188.056 229.296,187.321 230.000,186.753 230.000 C 186.185 230.000,185.163 230.762,184.482 231.693 C 183.492 233.047,183.506 233.649,184.551 234.693 C 186.219 236.362,187.648 236.358,188.291 234.685 C 188.928 233.024,198.150 230.000,202.580 230.000 C 204.423 230.000,208.014 230.707,210.560 231.572 C 215.977 233.411,217.258 232.845,213.892 230.099 C 211.785 228.381,211.702 228.070,213.192 227.490 C 215.898 226.436,218.452 227.360,218.777 229.511 C 219.654 235.313,220.056 236.000,222.578 236.000 C 224.245 236.000,224.873 235.603,224.404 234.844 C 223.890 234.013,224.613 233.873,226.970 234.344 C 228.774 234.705,231.994 235.000,234.125 235.000 C 237.056 235.000,238.000 235.401,238.000 236.647 C 238.000 238.081,238.935 238.214,245.250 237.676 C 257.188 236.660,259.000 236.093,259.000 233.375 C 259.000 231.432,259.517 231.000,261.845 231.000 C 264.892 231.000,268.000 228.351,268.000 225.755 C 268.000 224.881,268.563 223.960,269.250 223.707 C 270.195 223.360,270.073 222.466,268.750 220.043 C 266.386 215.713,266.515 214.878,270.000 212.000 C 271.650 210.637,273.000 209.010,273.000 208.383 C 273.000 207.757,273.675 206.685,274.500 206.000 C 276.108 204.665,276.571 201.000,275.131 201.000 C 274.653 201.000,273.999 199.383,273.679 197.407 C 273.057 193.575,268.418 186.623,267.048 187.470 C 266.596 187.750,265.671 187.308,264.991 186.489 C 264.311 185.670,263.044 185.000,262.175 185.000 C 261.306 185.000,259.124 183.574,257.325 181.831 C 254.022 178.629,247.324 175.593,246.790 177.055 C 246.630 177.491,244.925 177.134,243.000 176.263 C 239.688 174.762,232.574 174.073,228.500 174.858 M334.000 178.121 C 326.222 180.212,323.050 182.214,321.326 186.122 C 320.099 188.902,319.311 189.673,318.436 188.947 C 317.548 188.210,317.049 188.925,316.534 191.673 C 316.149 193.722,315.197 196.308,314.417 197.421 C 312.554 200.081,312.574 201.956,314.439 199.441 C 315.658 197.797,316.188 197.689,317.906 198.738 C 319.347 199.617,320.686 199.690,322.532 198.988 C 326.630 197.430,327.160 197.789,325.500 201.000 L 323.949 204.000 326.927 204.000 C 330.210 204.000,335.000 202.141,335.000 200.867 C 335.000 200.421,337.244 199.090,339.986 197.910 C 342.729 196.731,344.739 195.386,344.452 194.923 C 344.166 194.459,345.265 194.545,346.895 195.113 C 348.962 195.834,350.465 195.822,351.863 195.073 C 352.966 194.483,355.387 194.000,357.243 194.000 C 360.603 194.000,366.168 191.116,363.000 191.016 C 361.892 190.982,361.822 190.765,362.731 190.187 C 364.446 189.098,358.782 183.000,356.056 183.000 C 354.925 183.000,354.000 182.633,354.000 182.184 C 354.000 181.735,352.251 180.385,350.114 179.184 C 345.961 176.850,340.154 176.467,334.000 178.121 M130.987 179.250 C 130.980 179.938,129.854 182.750,128.485 185.500 L 125.996 190.500 126.578 185.622 C 126.899 182.939,127.398 180.127,127.687 179.372 C 128.346 177.656,131.005 177.558,130.987 179.250 M71.809 200.036 C 72.088 203.899,71.825 206.575,71.093 207.307 C 70.215 208.185,69.793 207.925,69.351 206.233 C 69.029 205.005,68.330 204.000,67.795 204.000 C 67.211 204.000,67.102 202.355,67.521 199.873 C 68.062 196.676,67.934 195.923,66.955 196.528 C 66.051 197.086,65.940 196.909,66.565 195.905 C 67.045 195.132,67.304 193.375,67.141 192.000 L 66.843 189.500 69.105 191.711 C 70.827 193.394,71.472 195.382,71.809 200.036 M198.000 192.000 C 201.419 193.095,204.048 193.095,201.500 192.000 C 200.400 191.527,198.600 191.154,197.500 191.170 C 195.892 191.194,195.990 191.356,198.000 192.000 M194.000 195.023 C 194.000 196.019,193.438 197.034,192.750 197.280 C 192.063 197.525,191.809 198.060,192.188 198.467 C 192.566 198.875,194.197 198.550,195.811 197.744 C 197.744 196.780,199.303 196.590,200.374 197.189 C 201.541 197.843,202.000 197.696,202.000 196.671 C 202.000 195.841,200.325 194.818,198.000 194.228 C 194.432 193.322,194.000 193.408,194.000 195.023 M363.441 196.477 C 365.787 198.318,368.324 198.478,367.756 196.750 C 367.530 196.063,366.030 195.377,364.423 195.227 C 361.635 194.967,361.589 195.025,363.441 196.477 M338.269 196.656 C 337.592 196.930,336.242 196.947,335.269 196.693 C 334.296 196.439,334.850 196.215,336.500 196.195 C 338.150 196.175,338.946 196.382,338.269 196.656 M321.292 209.320 C 321.631 210.202,320.329 211.032,317.366 211.825 C 314.825 212.504,312.669 213.755,312.315 214.755 C 311.974 215.715,311.093 217.206,310.357 218.069 C 309.620 218.932,308.758 221.969,308.441 224.819 L 307.864 230.000 312.410 230.000 C 316.931 230.000,316.950 230.015,315.785 232.572 C 314.159 236.141,315.917 237.069,324.000 236.908 C 327.575 236.836,331.266 237.093,332.202 237.477 C 333.138 237.862,334.376 237.886,334.952 237.530 C 335.528 237.173,336.000 237.411,336.000 238.058 C 336.000 239.219,338.365 239.029,342.500 237.534 C 344.104 236.955,344.203 237.025,343.000 237.890 C 341.748 238.791,341.862 238.972,343.691 238.985 C 344.896 238.993,346.190 238.502,346.566 237.893 C 347.043 237.122,347.510 237.197,348.110 238.143 C 348.742 239.142,348.973 239.170,348.985 238.250 C 348.993 237.563,349.477 237.000,350.059 237.000 C 350.641 237.000,350.840 237.450,350.500 238.000 C 350.160 238.550,350.809 239.000,351.941 239.000 C 354.119 239.000,354.886 237.045,352.750 236.937 C 352.063 236.902,352.625 236.413,354.000 235.851 C 356.672 234.758,366.105 235.451,368.896 236.944 C 370.337 237.716,370.604 237.263,370.742 233.817 C 370.830 231.602,370.189 228.142,369.317 226.129 C 367.770 222.558,361.420 216.810,357.472 215.407 C 356.388 215.022,357.413 216.125,359.750 217.859 C 362.087 219.594,364.000 221.474,364.000 222.038 C 364.000 223.918,360.949 224.264,359.102 222.592 C 357.650 221.279,354.798 220.896,345.140 220.721 C 337.478 220.581,333.002 220.113,333.001 219.451 C 332.999 217.770,339.780 215.782,347.946 215.069 L 355.500 214.410 350.500 213.646 C 345.347 212.858,333.209 214.282,329.878 216.065 C 328.380 216.867,328.162 216.742,328.685 215.379 C 329.052 214.422,328.697 213.240,327.851 212.605 C 327.040 211.997,326.081 210.713,325.719 209.750 C 325.358 208.787,324.101 208.000,322.924 208.000 C 321.564 208.000,320.970 208.480,321.292 209.320 M337.000 231.500 C 337.000 232.325,336.605 233.000,336.122 233.000 C 335.640 233.000,334.685 232.325,334.000 231.500 C 332.960 230.247,333.104 230.000,334.878 230.000 C 336.098 230.000,337.000 230.638,337.000 231.500 M338.500 237.000 C 338.840 237.550,338.641 238.000,338.059 238.000 C 337.477 238.000,337.000 237.550,337.000 237.000 C 337.000 236.450,337.198 236.000,337.441 236.000 C 337.684 236.000,338.160 236.450,338.500 237.000 M317.419 243.132 C 316.527 244.574,318.514 245.699,328.951 249.665 C 337.390 252.871,339.862 253.279,349.750 253.097 C 353.633 253.025,355.000 252.621,355.000 251.545 C 355.000 250.636,353.595 249.870,351.250 249.501 C 346.755 248.794,343.174 247.858,332.198 244.523 C 323.212 241.792,318.520 241.350,317.419 243.132 M239.000 246.063 C 234.020 247.295,227.719 247.932,220.250 247.959 C 211.444 247.991,209.000 248.296,209.000 249.362 C 209.000 251.051,219.049 252.195,227.000 251.412 C 236.066 250.518,246.444 248.005,249.566 245.947 L 252.500 244.013 249.500 244.111 C 247.850 244.164,243.125 245.043,239.000 246.063 M114.985 249.309 C 114.972 251.090,114.788 251.219,114.000 250.000 C 112.727 248.030,112.727 245.713,114.000 246.500 C 114.550 246.840,114.993 248.104,114.985 249.309 M71.494 255.112 C 68.849 256.399,66.000 263.459,66.000 268.727 C 66.000 272.811,68.619 280.000,70.108 280.000 C 70.943 280.000,72.152 276.408,74.468 267.043 C 75.346 263.492,76.832 259.739,77.769 258.703 C 79.379 256.923,79.367 256.742,77.546 255.410 C 75.338 253.796,74.303 253.745,71.494 255.112 M123.000 261.500 C 123.000 263.944,122.548 265.000,121.500 265.000 C 119.760 265.000,119.549 262.710,121.035 259.934 C 122.525 257.151,123.000 257.530,123.000 261.500 M88.019 279.126 C 86.133 281.472,84.133 285.525,83.443 288.397 C 82.768 291.204,81.892 294.293,81.497 295.262 C 81.101 296.232,81.111 299.157,81.520 301.762 C 81.928 304.368,82.466 305.938,82.715 305.250 C 82.963 304.563,83.755 304.000,84.475 304.000 C 85.194 304.000,86.067 302.869,86.414 301.487 C 87.132 298.627,92.605 293.000,94.670 293.000 C 95.425 293.000,96.505 291.987,97.069 290.748 C 97.865 289.001,97.551 287.049,95.667 282.038 C 94.332 278.486,92.819 275.440,92.304 275.268 C 91.790 275.097,89.862 276.833,88.019 279.126 M348.681 298.842 C 348.909 301.404,349.716 304.850,350.474 306.500 C 351.232 308.150,352.531 313.100,353.361 317.500 C 354.191 321.900,355.302 327.188,355.830 329.250 C 356.431 331.600,356.436 333.000,355.843 333.000 C 355.322 333.000,354.441 334.305,353.885 335.900 C 352.498 339.879,349.847 340.264,343.417 337.421 C 340.406 336.089,336.887 335.000,335.597 335.000 C 334.307 335.000,331.370 334.336,329.070 333.525 C 323.040 331.397,289.350 330.839,272.000 332.578 C 257.276 334.055,247.322 335.454,240.738 336.973 C 238.407 337.511,233.448 337.962,229.719 337.976 C 222.325 338.002,220.510 336.615,222.910 332.772 C 223.911 331.170,223.848 330.489,222.568 329.075 C 220.284 326.551,220.647 322.673,223.452 319.646 C 224.801 318.191,226.263 316.996,226.702 316.992 C 227.835 316.981,230.000 312.012,230.000 309.423 C 230.000 308.224,230.880 306.627,231.955 305.872 C 233.030 305.117,234.203 303.262,234.563 301.750 C 235.165 299.218,234.980 299.000,232.231 299.000 C 230.589 299.000,228.657 299.708,227.939 300.573 C 227.221 301.438,225.011 302.974,223.027 303.986 C 219.748 305.659,216.093 309.058,208.495 317.500 C 203.842 322.669,201.882 327.650,201.669 334.842 C 201.560 338.504,201.102 342.082,200.650 342.794 C 200.167 343.553,200.380 344.750,201.164 345.689 C 201.899 346.570,203.026 348.463,203.669 349.896 C 204.681 352.152,204.848 351.392,204.919 344.210 C 205.003 335.589,206.794 330.206,210.964 326.036 C 212.495 324.505,212.947 324.419,213.391 325.577 C 213.704 326.393,213.336 327.000,212.526 327.000 C 210.600 327.000,210.135 334.388,211.747 339.376 C 212.436 341.507,213.000 344.574,213.000 346.191 C 213.000 349.484,214.568 353.000,216.035 353.000 C 216.566 353.000,217.000 352.100,217.000 351.000 C 217.000 348.368,217.786 348.477,220.588 351.500 C 221.862 352.875,223.976 354.000,225.286 354.000 C 226.595 354.000,227.971 354.304,228.343 354.676 C 229.319 355.652,243.157 359.971,245.358 359.987 C 246.872 359.998,247.093 359.507,246.551 357.346 C 245.905 354.775,247.546 349.000,248.921 349.000 C 249.295 349.000,250.110 349.510,250.733 350.133 C 252.327 351.727,255.000 350.446,255.000 348.088 C 255.000 346.317,258.355 343.000,260.146 343.000 C 260.531 343.000,262.286 344.211,264.046 345.692 L 267.245 348.384 269.206 345.692 C 271.876 342.027,275.552 342.173,279.610 346.107 C 282.758 349.158,282.835 349.176,283.931 347.130 C 286.521 342.289,293.382 342.401,298.831 347.373 C 301.076 349.422,301.210 349.433,302.505 347.662 C 303.245 346.651,305.571 345.420,307.675 344.927 C 311.071 344.131,311.743 344.304,313.664 346.471 L 315.828 348.912 317.437 346.456 C 319.278 343.646,321.195 343.325,323.019 345.523 C 323.714 346.360,325.066 346.797,326.023 346.493 C 327.106 346.149,328.010 346.583,328.417 347.644 C 329.197 349.677,328.280 357.388,326.795 361.278 C 325.824 363.821,325.555 363.941,323.617 362.692 C 320.487 360.676,316.768 359.948,315.400 361.083 C 314.738 361.632,311.339 362.114,307.848 362.154 C 304.357 362.193,300.600 362.252,299.500 362.284 C 290.808 362.541,286.901 362.163,285.403 360.922 C 284.288 359.998,282.003 359.619,278.876 359.840 C 275.928 360.048,272.881 359.588,271.006 358.653 C 268.151 357.228,267.719 357.272,264.516 359.314 C 262.629 360.516,261.066 361.779,261.042 362.121 C 261.019 362.462,264.262 363.044,268.250 363.415 C 272.238 363.785,278.200 364.559,281.500 365.135 C 288.336 366.328,300.401 366.512,316.779 365.673 C 325.583 365.222,328.655 364.678,330.779 363.193 C 332.275 362.147,334.795 360.978,336.379 360.595 C 337.962 360.211,340.879 358.795,342.861 357.449 C 344.843 356.102,346.951 355.000,347.545 355.000 C 348.139 355.000,349.944 353.624,351.556 351.941 C 354.468 348.902,354.497 348.896,356.133 350.916 C 357.776 352.945,357.783 352.944,360.337 350.390 C 361.744 348.983,363.640 345.590,364.550 342.849 C 365.632 339.590,366.655 338.037,367.504 338.363 C 368.361 338.692,369.036 337.619,369.488 335.210 C 370.607 329.247,372.346 333.969,371.563 340.846 L 370.920 346.500 372.938 344.000 C 374.047 342.625,374.980 340.600,375.010 339.500 C 375.039 338.400,375.724 336.626,376.532 335.559 C 379.926 331.072,376.852 320.589,369.790 312.568 C 367.336 309.781,364.789 306.488,364.129 305.250 C 363.469 304.012,362.378 303.000,361.705 303.000 C 361.031 303.000,359.275 301.883,357.804 300.519 C 356.332 299.154,353.584 297.171,351.697 296.111 L 348.266 294.184 348.681 298.842 M273.000 295.944 C 271.625 296.296,268.356 297.564,265.737 298.762 C 262.109 300.421,260.383 300.716,258.496 299.998 C 256.216 299.132,256.115 299.211,257.223 300.986 C 257.886 302.047,260.020 303.670,261.964 304.593 C 270.280 308.536,271.687 309.110,272.569 308.917 C 273.869 308.633,280.000 311.053,280.000 311.850 C 280.000 312.209,281.913 313.521,284.250 314.764 C 286.587 316.008,289.224 318.294,290.108 319.846 C 290.992 321.397,292.342 322.714,293.108 322.773 C 293.874 322.831,297.132 323.198,300.348 323.589 C 303.788 324.007,306.465 323.908,306.848 323.348 C 307.207 322.824,309.126 321.640,311.112 320.716 C 313.099 319.793,315.292 318.354,315.985 317.518 C 316.678 316.683,317.865 316.000,318.622 316.000 C 319.393 316.000,320.000 314.987,320.000 313.700 C 320.000 310.499,321.817 309.013,324.961 309.642 C 327.099 310.070,328.713 309.252,333.065 305.537 C 338.990 300.480,340.184 297.319,336.000 297.768 C 334.625 297.916,332.281 298.928,330.790 300.018 C 327.970 302.081,325.457 302.687,326.461 301.063 C 327.335 299.649,318.944 298.235,315.500 299.216 C 313.850 299.686,310.813 300.108,308.750 300.153 C 306.688 300.199,305.000 300.688,305.000 301.240 C 305.000 301.859,304.484 301.817,303.658 301.131 C 302.920 300.519,301.995 300.338,301.604 300.730 C 301.212 301.122,300.537 300.869,300.105 300.169 C 298.465 297.516,278.820 294.454,273.000 295.944 M321.000 308.500 C 320.315 309.325,319.274 310.000,318.686 310.000 C 318.099 310.000,318.491 309.339,319.559 308.532 C 322.067 306.634,322.557 306.624,321.000 308.500 M370.985 328.809 C 370.973 330.914,370.758 331.173,370.000 330.000 C 368.723 328.024,368.723 324.711,370.000 325.500 C 370.550 325.840,370.993 327.329,370.985 328.809 M181.710 330.000 C 181.423 331.100,181.595 332.000,182.094 332.000 C 182.592 332.000,183.000 331.100,183.000 330.000 C 183.000 328.900,182.827 328.000,182.617 328.000 C 182.406 328.000,181.998 328.900,181.710 330.000 M181.704 335.683 C 181.107 336.666,182.660 346.994,183.537 347.870 C 184.113 348.446,183.053 335.877,182.468 335.183 C 182.321 335.009,181.977 335.234,181.704 335.683 M252.544 359.928 C 252.229 360.438,252.911 361.154,254.061 361.519 C 256.435 362.273,257.514 361.641,256.541 360.067 C 255.730 358.754,253.322 358.670,252.544 359.928 M113.679 368.606 C 114.866 371.698,113.231 372.133,111.190 369.267 C 109.004 366.197,109.004 366.188,111.083 366.732 C 112.230 367.032,113.399 367.875,113.679 368.606 M297.000 386.429 C 297.000 387.508,296.061 388.000,294.000 388.000 C 291.667 388.000,291.000 388.444,291.000 390.000 C 291.000 391.100,291.450 392.000,292.000 392.000 C 292.550 392.000,293.000 391.523,293.000 390.941 C 293.000 390.359,293.489 390.184,294.087 390.554 C 294.685 390.923,294.952 392.074,294.681 393.112 C 294.150 395.144,295.812 396.845,296.862 395.344 C 297.213 394.842,298.400 394.454,299.500 394.481 C 301.832 394.540,304.000 393.205,304.000 391.711 C 304.000 391.137,303.721 390.945,303.381 391.286 C 302.747 391.920,300.000 389.657,300.000 388.500 C 300.000 388.146,299.325 387.182,298.500 386.357 C 297.167 385.024,297.000 385.032,297.000 386.429 M305.400 392.464 C 305.400 394.781,305.499 394.826,307.054 393.214 C 308.195 392.031,308.366 391.272,307.604 390.765 C 305.798 389.564,305.400 389.870,305.400 392.464 M284.638 392.500 C 284.308 393.360,284.618 394.000,285.365 394.000 C 286.081 394.000,286.667 393.325,286.667 392.500 C 286.667 391.675,286.340 391.000,285.940 391.000 C 285.541 391.000,284.955 391.675,284.638 392.500 M173.468 423.052 C 173.003 423.804,173.414 424.829,174.496 425.620 C 175.872 426.627,176.031 427.257,175.172 428.293 C 173.908 429.816,175.397 432.000,177.700 432.000 C 178.415 432.000,179.000 432.406,179.000 432.901 C 179.000 433.397,180.554 434.719,182.452 435.839 C 185.618 437.707,185.949 437.736,186.442 436.183 C 187.078 434.178,186.372 429.888,185.272 429.073 C 184.846 428.758,183.867 427.278,183.098 425.784 C 182.328 424.290,181.287 423.323,180.784 423.633 C 180.281 423.944,180.603 425.009,181.500 426.000 C 182.721 427.350,182.828 427.989,181.923 428.547 C 181.177 429.008,179.479 427.862,177.479 425.547 C 175.183 422.891,174.016 422.165,173.468 423.052 M185.000 423.059 C 185.000 423.641,185.450 423.840,186.000 423.500 C 186.550 423.160,187.000 422.684,187.000 422.441 C 187.000 422.198,186.550 422.000,186.000 422.000 C 185.450 422.000,185.000 422.477,185.000 423.059 M192.323 428.763 C 189.221 429.272,187.809 431.391,188.565 434.404 C 188.979 436.054,189.906 437.000,191.108 437.000 C 192.149 437.000,193.000 437.413,193.000 437.918 C 193.000 438.423,193.282 439.571,193.626 440.469 C 194.137 441.798,193.785 441.984,191.736 441.470 C 190.320 441.114,188.926 441.311,188.550 441.919 C 188.122 442.612,189.091 443.000,191.250 443.000 C 193.102 443.000,195.491 443.647,196.559 444.438 C 198.393 445.797,198.404 445.949,196.755 447.188 C 195.137 448.405,195.191 448.583,197.505 449.656 C 199.530 450.594,200.000 450.547,200.000 449.406 C 200.000 447.761,201.594 447.534,202.529 449.046 C 202.884 449.622,204.444 449.892,205.995 449.648 C 208.519 449.250,208.881 449.550,209.432 452.492 C 209.807 454.490,210.764 455.967,211.873 456.257 C 212.876 456.519,213.959 457.735,214.279 458.959 C 214.820 461.027,214.737 461.072,213.102 459.592 C 210.719 457.436,209.659 457.590,210.290 460.000 C 210.845 462.123,210.022 462.605,208.450 461.077 C 207.927 460.569,206.262 460.397,204.750 460.694 C 202.511 461.133,202.000 461.769,202.000 464.117 C 202.000 466.561,201.601 467.000,199.378 467.000 C 197.160 467.000,196.947 467.232,198.000 468.500 C 199.034 469.746,198.915 470.000,197.297 470.000 C 196.225 470.000,194.370 471.042,193.174 472.314 C 190.878 474.759,190.320 477.000,192.008 477.000 C 192.614 477.000,192.529 477.781,191.796 478.955 C 190.055 481.742,191.190 482.295,195.995 481.001 C 199.006 480.191,201.055 480.172,203.245 480.936 C 207.201 482.315,207.478 482.281,206.074 480.589 C 204.049 478.149,206.723 477.727,210.754 479.850 C 216.202 482.721,217.917 483.215,223.712 483.588 C 227.297 483.819,229.560 484.560,230.962 485.962 C 232.814 487.814,235.385 488.512,238.750 488.075 C 239.438 487.985,240.000 488.382,240.000 488.956 C 240.000 489.661,251.136 490.000,274.289 490.000 C 312.185 490.000,310.196 490.298,320.000 483.143 C 324.804 479.636,327.096 476.413,326.285 474.300 C 326.011 473.585,326.399 473.000,327.149 473.000 C 329.185 473.000,331.208 467.546,330.955 462.738 C 330.582 455.668,330.939 453.000,332.256 453.000 C 332.947 453.000,334.135 451.538,334.898 449.750 C 335.660 447.962,337.345 445.068,338.642 443.317 C 339.939 441.566,341.007 439.541,341.015 438.817 C 341.028 437.741,341.185 437.744,341.876 438.834 C 343.117 440.792,343.966 438.113,342.932 435.500 C 342.497 434.400,342.109 434.089,342.070 434.809 C 342.032 435.529,341.511 435.816,340.913 435.446 C 340.315 435.077,340.048 433.925,340.319 432.887 C 340.978 430.368,339.472 430.488,337.642 433.101 C 336.564 434.640,334.785 435.324,330.992 435.656 C 327.514 435.961,326.028 435.763,326.466 435.055 C 326.897 434.357,324.945 434.000,320.694 434.000 C 315.893 434.000,313.658 433.519,311.850 432.097 C 308.777 429.680,294.816 428.655,292.187 430.654 C 291.259 431.359,289.338 431.951,287.917 431.968 C 286.496 431.986,285.020 432.313,284.638 432.696 C 283.252 434.081,271.018 434.747,269.070 433.544 C 268.482 433.180,268.000 433.407,268.000 434.048 C 268.000 434.689,267.348 434.964,266.551 434.658 C 265.582 434.286,265.286 434.582,265.658 435.551 C 265.964 436.348,265.716 437.000,265.107 437.000 C 264.498 437.000,264.000 436.475,264.000 435.833 C 264.000 435.192,263.741 434.926,263.425 435.242 C 263.108 435.558,261.503 435.431,259.857 434.959 C 258.104 434.456,255.834 434.493,254.375 435.047 C 252.873 435.619,252.113 435.626,252.459 435.066 C 252.775 434.556,252.525 433.824,251.905 433.441 C 251.284 433.058,250.427 433.309,250.000 434.000 C 249.573 434.691,248.754 434.966,248.181 434.612 C 247.607 434.257,246.837 434.454,246.470 435.049 C 246.017 435.782,245.262 435.642,244.127 434.615 C 242.855 433.463,239.616 433.060,230.652 432.936 C 219.212 432.777,213.000 431.367,213.000 428.927 C 213.000 428.417,212.550 428.000,212.000 428.000 C 211.450 428.000,211.000 428.900,211.000 430.000 C 211.000 432.355,209.468 432.663,208.630 430.477 C 208.141 429.205,207.708 429.164,205.992 430.227 C 204.306 431.272,203.785 431.252,203.077 430.115 C 202.494 429.179,201.338 428.949,199.512 429.408 C 198.025 429.781,196.289 429.708,195.654 429.246 C 195.019 428.785,193.520 428.567,192.323 428.763 M391.729 440.604 C 391.397 440.936,390.534 440.972,389.813 440.683 C 389.015 440.364,389.252 440.127,390.417 440.079 C 391.471 440.036,392.061 440.272,391.729 440.604 M202.015 452.250 C 202.024 452.938,202.417 454.111,202.890 454.857 C 203.497 455.814,203.750 455.446,203.750 453.607 C 203.750 452.173,203.356 451.000,202.875 451.000 C 202.394 451.000,202.007 451.563,202.015 452.250 M193.150 464.950 C 193.580 466.239,194.951 466.471,195.075 465.275 C 195.116 464.876,194.610 464.370,193.950 464.150 C 193.290 463.930,192.930 464.290,193.150 464.950 M92.502 474.831 C 92.300 475.034,90.486 474.655,88.471 473.990 C 84.923 472.819,84.688 472.899,80.983 476.516 C 77.390 480.026,76.964 480.183,73.930 479.125 C 72.154 478.506,68.706 478.000,66.267 478.000 C 63.162 478.000,61.960 477.626,62.255 476.750 C 62.488 476.063,63.763 475.655,65.089 475.845 C 66.415 476.035,69.993 476.408,73.039 476.673 C 78.172 477.121,78.678 476.971,79.930 474.631 C 81.569 471.568,86.256 470.814,90.185 472.981 C 91.662 473.796,92.705 474.628,92.502 474.831 M46.729 477.604 C 46.397 477.936,45.534 477.972,44.813 477.683 C 44.015 477.364,44.252 477.127,45.417 477.079 C 46.471 477.036,47.061 477.272,46.729 477.604 M34.570 480.679 C 34.001 482.162,33.750 482.213,32.999 480.998 C 32.431 480.079,32.531 479.290,33.274 478.831 C 34.873 477.843,35.380 478.566,34.570 480.679 M200.000 484.000 C 200.000 484.550,200.450 485.000,201.000 485.000 C 201.550 485.000,202.000 484.550,202.000 484.000 C 202.000 483.450,201.550 483.000,201.000 483.000 C 200.450 483.000,200.000 483.450,200.000 484.000 M192.000 485.000 C 192.000 485.550,192.675 486.000,193.500 486.000 C 194.325 486.000,195.000 485.550,195.000 485.000 C 195.000 484.450,194.325 484.000,193.500 484.000 C 192.675 484.000,192.000 484.450,192.000 485.000 " stroke="none" fill="black" fill-rule="evenodd"/></svg>